<svg id="layer_1" data-name="layer 1" xmlns="http://www.w3.org/2000/svg" viewBox="0 0 64 64"><defs><style>.cls-1{fill:#7e808c;}</style></defs><title>cogs</title><path class="cls-1" d="M25.05,41.85,27,39.14,24.86,37,22.15,39a7.49,7.49,0,0,0-1.6-.66L20,35H17l-.55,3.29a7.49,7.49,0,0,0-1.6.66L12.13,37,10,39.14,12,41.85a7,7,0,0,0-.66,1.6L8,44v3l3.29.55a7.49,7.49,0,0,0,.66,1.6L10,51.86,12.14,54l2.71-1.94a7.49,7.49,0,0,0,1.6.66L17,56h3l.55-3.29a7.49,7.49,0,0,0,1.6-.66L24.87,54,27,51.86l-1.94-2.71a7.52,7.52,0,0,0,.67-1.6L29,47V44l-3.28-.55a7.52,7.52,0,0,0-.67-1.6ZM18.5,48.5a3,3,0,1,1,3-3A3,3,0,0,1,18.5,48.5ZM56,26V23l-3.16-.57c-.06-.38-.13-.75-.22-1.12l2.7-1.74L54.17,16.8,51,17.48c-.2-.33-.41-.64-.63-.94l1.83-2.65-2.12-2.12L47.46,13.6c-.3-.22-.62-.43-.94-.63l.68-3.14L44.43,8.68l-1.74,2.7c-.37-.09-.74-.16-1.12-.22L41,8H38l-.58,3.16c-.37.06-.74.13-1.11.22l-1.74-2.7L31.8,9.83,32.48,13c-.33.2-.64.41-.95.63l-2.64-1.83-2.12,2.12,1.83,2.65c-.22.3-.43.61-.63.94l-3.14-.68-1.15,2.77,2.7,1.74c-.09.37-.16.74-.22,1.12L23,23v3l3.16.57c.06.38.13.75.22,1.12l-2.7,1.74,1.15,2.77L28,31.52c.2.33.41.64.63.95l-1.83,2.64,2.12,2.12,2.64-1.83c.31.22.62.43.95.63l-.68,3.14,2.77,1.15,1.74-2.7c.37.09.74.16,1.11.22L38,41h3l.57-3.16c.38-.06.75-.13,1.12-.22l1.74,2.7,2.77-1.15L46.52,36c.32-.2.64-.41.94-.63l2.65,1.83,2.12-2.12L50.4,32.47c.22-.31.43-.62.63-.95l3.14.68,1.15-2.77-2.7-1.74c.09-.37.16-.74.22-1.12ZM39.5,31A6.53,6.53,0,1,1,46,24.5,6.54,6.54,0,0,1,39.5,31Z"/></svg>