<svg id="layer_1" data-name="layer 1" xmlns="http://www.w3.org/2000/svg" viewBox="0 0 64 64"><defs><style>.cls-1{fill:#474a5e;}</style></defs><path class="cls-1" d="M29.33,48A5.33,5.33,0,1,1,24,42.67,5.35,5.35,0,0,1,29.33,48ZM24,26.67A5.33,5.33,0,1,0,29.33,32,5.35,5.35,0,0,0,24,26.67Zm0-16A5.33,5.33,0,1,0,29.33,16,5.35,5.35,0,0,0,24,10.67ZM40,21.33A5.33,5.33,0,1,0,34.67,16,5.35,5.35,0,0,0,40,21.33Zm0,5.34A5.33,5.33,0,1,0,45.33,32,5.35,5.35,0,0,0,40,26.67Zm0,16A5.33,5.33,0,1,0,45.33,48,5.35,5.35,0,0,0,40,42.67Z"/></svg>