<svg id="layer_1" data-name="layer 1" xmlns="http://www.w3.org/2000/svg" viewBox="0 0 64 64"><defs><style>.cls-1{fill:#7e808c;}</style></defs><title>file-text</title><path class="cls-1" d="M50.12,18.74a43.43,43.43,0,0,0-3.9-4.68A39.88,39.88,0,0,0,41.77,10c-2.3-1.77-3.42-2-4.06-2H15.57A3.67,3.67,0,0,0,12,11.75v40.5A3.67,3.67,0,0,0,15.57,56H48.43A3.67,3.67,0,0,0,52,52.25V23C52,22.33,51.8,21.16,50.12,18.74ZM44.2,16.19A38.44,38.44,0,0,1,47.44,20H40.57V12.78A40.07,40.07,0,0,1,44.2,16.19Zm4.94,36.06a.73.73,0,0,1-.71.75H15.57a.73.73,0,0,1-.71-.75V11.75a.73.73,0,0,1,.71-.75H37.71V21.5A1.47,1.47,0,0,0,39.14,23h10Z"/><path class="cls-1" d="M41.63,47H22.37a1.51,1.51,0,0,1,0-3H41.63a1.51,1.51,0,0,1,0,3Z"/><path class="cls-1" d="M41.63,41H22.37a1.51,1.51,0,0,1,0-3H41.63a1.51,1.51,0,0,1,0,3Z"/><path class="cls-1" d="M41.63,35H22.37a1.51,1.51,0,0,1,0-3H41.63a1.51,1.51,0,0,1,0,3Z"/></svg>