<svg id="layer_1" data-name="layer 1" xmlns="http://www.w3.org/2000/svg" viewBox="0 0 64 64"><defs><style>.cls-1{fill:#474a5e;}</style></defs><title>file のコピー</title><path class="cls-1" d="M32.51,46.05,14.69,46l0-34.33h16.4V20a1.77,1.77,0,0,0,1.67,1.84h7.11l0,16.83,3.31-3.32V21.26c0-.64-.16-1.74-1.53-3.91a35.73,35.73,0,0,0-3-4,33.23,33.23,0,0,0-3.48-3.52C33.25,8.19,32.26,8,31.68,8h-17a3.55,3.55,0,0,0-3.32,3.74V46a3.55,3.55,0,0,0,3.32,3.74H28.82Zm1.93-32.11c.59.58,1.2,1.23,1.8,1.93s1.28,1.54,1.82,2.28H34.44Z"/><path class="cls-1" d="M32,49.79V55h5.21L52.57,39.64l-5.21-5.21ZM56.59,35.61a1.36,1.36,0,0,0,0-2l-3.25-3.25a1.36,1.36,0,0,0-2,0L48.84,33l5.21,5.21Z"/></svg>