<svg id="layer_1" data-name="layer 1" xmlns="http://www.w3.org/2000/svg" viewBox="0 0 64 64"><defs><style>.cls-1{fill:#7e808c;}</style></defs><title>file-csv</title><path class="cls-1" d="M50.12,18.74a43.43,43.43,0,0,0-3.9-4.68A39.88,39.88,0,0,0,41.77,10c-2.3-1.77-3.42-2-4.06-2H15.57A3.67,3.67,0,0,0,12,11.75v40.5A3.67,3.67,0,0,0,15.57,56H48.43A3.67,3.67,0,0,0,52,52.25V23c0-.67-.2-1.84-1.88-4.26ZM44.2,16.19A38.44,38.44,0,0,1,47.44,20H40.57V12.78a40.07,40.07,0,0,1,3.63,3.41Zm4.94,36.06a.73.73,0,0,1-.71.75H15.57a.73.73,0,0,1-.71-.75V11.75a.73.73,0,0,1,.71-.75H37.71V21.5A1.47,1.47,0,0,0,39.14,23h10Z"/><path class="cls-1" d="M32.58,38.3c-.61-.08-1.09-.16-1.44-.22A2,2,0,0,1,30,37.53a1.19,1.19,0,0,1-.32-.79,1.46,1.46,0,0,1,.48-1.18,1.76,1.76,0,0,1,1.19-.39,5.11,5.11,0,0,1,3,1l.44.32,1.62-2.64L36,33.58A7.53,7.53,0,0,0,31.47,32,4.69,4.69,0,0,0,28,33.3a4.55,4.55,0,0,0-1.28,3.24,6.09,6.09,0,0,0-1.61-3.17,5,5,0,0,0-6.32-.48,5.27,5.27,0,0,0-1.66,1.94,4.42,4.42,0,0,0-.5,1.54,25.41,25.41,0,0,0-.14,3.43,25.63,25.63,0,0,0,.14,3.42,5.62,5.62,0,0,0,.2.87c.08.21.17.42.28.66a5.19,5.19,0,0,0,1.67,1.94,4.83,4.83,0,0,0,2.88.93,4.93,4.93,0,0,0,3.29-1.19,5,5,0,0,0,.95-1.18l.28.26a7.54,7.54,0,0,0,5.35,2.11c3.25,0,5-1.66,5.09-4.69a4.86,4.86,0,0,0-1-3A4.45,4.45,0,0,0,32.58,38.3Zm-6.44,6.51a7.82,7.82,0,0,0,.6-1.73l.13-.61H23.82l-.13.31c-.47,1.11-1.14,1.66-2,1.66a1.66,1.66,0,0,1-1-.27,1.86,1.86,0,0,1-.68-.6,2,2,0,0,1-.41-1,18.28,18.28,0,0,1-.13-2.78A19,19,0,0,1,19.6,37a2.26,2.26,0,0,1,1.1-1.58,2,2,0,0,1,.94-.24,1.91,1.91,0,0,1,1.28.46,2.66,2.66,0,0,1,.75,1.26l.1.36h3a4.56,4.56,0,0,0,1,2.43,4.64,4.64,0,0,0,2.88,1.54l1.72.27c.9.17,1.3.61,1.29,1.43s-.26,1.49-2.08,1.52a4.9,4.9,0,0,1-3.38-1.31l-.4-.35Z"/><polygon class="cls-1" points="44.54 32.1 41.92 41.72 39.32 32.1 36.16 32.1 40.78 47.5 43.07 47.5 47.7 32.1 44.54 32.1"/></svg>