<svg id="layer_1" data-name="layer 1" xmlns="http://www.w3.org/2000/svg" viewBox="0 0 64 64"><defs><style>.cls-1{fill:#474a5e;}</style></defs><title>file-code</title><path class="cls-1" d="M50.12,18.74a43.43,43.43,0,0,0-3.9-4.68A39.88,39.88,0,0,0,41.77,10c-2.3-1.77-3.42-2-4.06-2H15.57A3.67,3.67,0,0,0,12,11.75v40.5A3.67,3.67,0,0,0,15.57,56H48.43A3.67,3.67,0,0,0,52,52.25V23c0-.67-.2-1.84-1.88-4.26ZM44.2,16.19A38.44,38.44,0,0,1,47.44,20H40.57V12.78a40.07,40.07,0,0,1,3.63,3.41Zm4.94,36.06a.73.73,0,0,1-.71.75H15.57a.73.73,0,0,1-.71-.75V11.75a.73.73,0,0,1,.71-.75H37.71V21.5A1.47,1.47,0,0,0,39.14,23h10Z"/><polygon class="cls-1" points="33.08 29.39 28.77 46.62 30.92 46.62 35.23 29.39 33.08 29.39"/><polygon class="cls-1" points="24.46 44.46 18 38 24.46 31.54 25.97 33.05 21.02 38 25.97 42.95 24.46 44.46"/><polygon class="cls-1" points="39.54 44.46 46 38 39.54 31.54 38.03 33.05 42.98 38 38.03 42.95 39.54 44.46"/></svg>