<svg id="layer_1" data-name="layer 1" xmlns="http://www.w3.org/2000/svg" viewBox="0 0 64 64"><defs><style>.cls-1{fill:#474a5e;}</style></defs><title>files</title><path class="cls-1" d="M41.49,26a33.72,33.72,0,0,0-3.11-3.74A34,34,0,0,0,34.82,19C33,17.56,32.08,17.4,31.57,17.4H13.86a2.94,2.94,0,0,0-2.86,3V52.8a2.94,2.94,0,0,0,2.86,3H40.14a2.94,2.94,0,0,0,2.86-3V29.4c0-.54-.16-1.48-1.51-3.41Zm-4.73-2A32.78,32.78,0,0,1,39.36,27h-5.5V21.23A30.24,30.24,0,0,1,36.76,24Zm4,28.85a.59.59,0,0,1-.57.6H13.86a.59.59,0,0,1-.57-.6V20.4a.59.59,0,0,1,.57-.6H31.57v8.4a1.17,1.17,0,0,0,1.14,1.2h8Z"/><path class="cls-1" d="M41.49,26a33.72,33.72,0,0,0-3.11-3.74A34,34,0,0,0,34.82,19C33,17.56,32.08,17.4,31.57,17.4H13.86a2.94,2.94,0,0,0-2.86,3V52.8a2.94,2.94,0,0,0,2.86,3H40.14a2.94,2.94,0,0,0,2.86-3V29.4c0-.54-.16-1.48-1.51-3.41Zm-4.73-2A32.78,32.78,0,0,1,39.36,27h-5.5V21.23A30.24,30.24,0,0,1,36.76,24Zm4,28.85a.59.59,0,0,1-.57.6H13.86a.59.59,0,0,1-.57-.6V20.4a.59.59,0,0,1,.57-.6H31.57v8.4a1.17,1.17,0,0,0,1.14,1.2h8Z"/><path class="cls-1" d="M49.49,16.59a33.72,33.72,0,0,0-3.11-3.74,34,34,0,0,0-3.56-3.27C41,8.16,40.08,8,39.57,8H21.86A2.94,2.94,0,0,0,19,11v6.4h2.29V11a.59.59,0,0,1,.57-.6H39.57v8.4A1.17,1.17,0,0,0,40.71,20h8V43.4a.59.59,0,0,1-.57.6H43v2.4h5.14a2.94,2.94,0,0,0,2.86-3V20C51,19.46,50.84,18.52,49.49,16.59Zm-7.63,1V11.83a30.24,30.24,0,0,1,2.9,2.72,32.78,32.78,0,0,1,2.6,3.05Z"/></svg>