<svg xmlns="http://www.w3.org/2000/svg" viewBox="0 0 64 64">
  <path d="M16.36 45.12V12.48h16.85v7.66a2.22 2.22 0 002.18 2.24h7.25v4.74A13.8 13.8 0 0147 28.89v-7.51c0-.75-.2-1.89-1.73-4.09a36.78 36.78 0 00-3.31-4 35 35 0 00-3.79-3.47C36.05 8.21 34.94 8 34.21 8H16a4 4 0 00-4 4.09v33.42a4 4 0 004 4.09h13.19a13.8 13.8 0 01-2.55-4.48z"/>
  <path d="M48.32 46.33l.13-.2a10.31 10.31 0 00-8.73-15.83 10.34 10.34 0 000 20.67 10.21 10.21 0 005.49-1.6l.2-.13 7.34 7.33 2.93-2.93zm-8.6.52a6.21 6.21 0 116.21-6.21 6.22 6.22 0 01-6.21 6.21z"/>
</svg>