<svg id="layer_1" data-name="layer 1" xmlns="http://www.w3.org/2000/svg" viewBox="0 0 64 64"><defs><style>.cls-1{fill:#474a5e;}</style></defs><path class="cls-1" d="M49,19.44a39.49,39.49,0,0,0-3.66-4.39,39,39,0,0,0-4.18-3.84C39,9.54,38,9.35,37.37,9.35H16.56a3.45,3.45,0,0,0-3.36,3.52V50.94a3.45,3.45,0,0,0,3.36,3.53H47.44a3.45,3.45,0,0,0,3.36-3.53V23.45c0-.63-.18-1.74-1.77-4ZM43.47,17a37.08,37.08,0,0,1,3.05,3.59H40.06V13.84A39.57,39.57,0,0,1,43.47,17Zm4.64,33.9a.7.7,0,0,1-.67.71H16.56a.7.7,0,0,1-.67-.71V12.87a.69.69,0,0,1,.67-.7H37.37V22a1.38,1.38,0,0,0,1.34,1.41h9.4Z"/><polygon class="cls-1" points="36.07 49.08 31.99 41.89 27.69 49.08 21.85 49.08 29.07 37.84 22.2 27.02 28.18 27.02 32 33.87 35.92 27.02 41.73 27.02 34.85 37.67 42.15 49.08 36.07 49.08"/><path class="cls-1" d="M48.91,19.63a38.63,38.63,0,0,0-3.66-4.4,39,39,0,0,0-4.18-3.84c-2.17-1.66-3.22-1.86-3.82-1.86H16.44a3.45,3.45,0,0,0-3.36,3.53V51.13a3.44,3.44,0,0,0,3.36,3.52H47.32a3.45,3.45,0,0,0,3.36-3.52V23.63c0-.63-.19-1.73-1.77-4Zm-5.56-2.4a38.36,38.36,0,0,1,3,3.58H39.94V14a36.63,36.63,0,0,1,3.41,3.2ZM48,51.13a.69.69,0,0,1-.67.7H16.44a.7.7,0,0,1-.68-.7V13.06a.71.71,0,0,1,.68-.71H37.25v9.87a1.38,1.38,0,0,0,1.34,1.41H48Z"/></svg>