<?xml version="1.0" encoding="utf-8"?>
<!-- Generator: Adobe Illustrator 23.0.2, SVG Export Plug-In . SVG Version: 6.00 Build 0)  -->
<svg version="1.1" id="layer_1" xmlns="http://www.w3.org/2000/svg" xmlns:xlink="http://www.w3.org/1999/xlink" x="0px" y="0px"
	 viewBox="0 0 64 64" style="enable-background:new 0 0 64 64;" xml:space="preserve">
<style type="text/css">
	.st0{fill:#474A5E;}
</style>
<title>folder</title>
<path class="st0" d="M25.9,16l3.9,3.9l0.9,0.9h20.5c0.9,0,1.6,0.7,1.7,1.6v24c0,0.9-0.7,1.6-1.7,1.7H12.8c-0.9,0-1.6-0.7-1.6-1.7
	V17.7c0-0.9,0.7-1.6,1.6-1.7c0,0,0,0,0,0H25.9 M27.2,12.9H12.8C10.2,12.8,8,15,8,17.6v28.8c0,2.6,2.2,4.8,4.8,4.8h38.4
	c2.6,0,4.8-2.2,4.8-4.8v-24c0-2.6-2.2-4.8-4.8-4.8H32L27.2,12.9L27.2,12.9z"/>
</svg>
