<?xml version="1.0" encoding="utf-8"?>
<!-- Generator: Adobe Illustrator 23.0.3, SVG Export Plug-In . SVG Version: 6.00 Build 0)  -->
<svg version="1.1" id="layer_1" xmlns="http://www.w3.org/2000/svg" xmlns:xlink="http://www.w3.org/1999/xlink" x="0px" y="0px"
	 viewBox="0 0 64 64" style="enable-background:new 0 0 64 64;" xml:space="preserve">
<style type="text/css">
	.st0{fill:#474A5E;}
</style>
<path class="st0" d="M32,56C18.7,56,8,45.3,8,32S18.7,8,32,8s24,10.7,24,24S45.3,56,32,56z M26.8,42c1.1,3.5,2.7,6.8,4.8,9.8
	l0.4,0.6l0.4-0.6c2.1-3,3.7-6.3,4.8-9.8l0.2-0.7H26.6L26.8,42z M41.2,41.7c-0.8,3-1.9,5.9-3.3,8.6l-0.6,1.2l1.2-0.5
	c4.6-1.6,8.5-4.7,10.9-8.9l0.5-0.8h-8.5L41.2,41.7z M14.6,42.1c2.4,4.2,6.3,7.3,10.9,8.9l1.2,0.4l-0.6-1.2c-1.5-2.7-2.6-5.6-3.3-8.6
	l-0.1-0.3l-0.3-0.1h-8.2L14.6,42.1z M42.2,27.2c0.2,1.6,0.3,3.2,0.3,4.8c0,1.6-0.1,3.2-0.3,4.8l-0.1,0.6h9.3l0.1-0.3
	c0.9-3.3,0.9-6.8,0-10.1l-0.1-0.3L51,26.6h-8.9L42.2,27.2z M25.8,27c-0.3,1.7-0.4,3.3-0.4,5c0,1.7,0.2,3.3,0.4,5v0.3l0.4,0.1h12
	v-0.3c0.3-1.7,0.5-3.4,0.5-5.1c0-1.7-0.1-3.3-0.4-5l0-0.4l-0.4-0.1h-12L25.8,27z M12.5,27c-0.9,3.3-0.9,6.8,0,10.1l0.1,0.3l0.3,0.1
	h8.9l-0.1-0.6c-0.2-1.6-0.3-3.2-0.3-4.9c0-1.6,0.1-3.2,0.3-4.8l0.1-0.6h-9.3L12.5,27z M37.9,13.7c1.5,2.7,2.6,5.6,3.3,8.6l0.1,0.3
	l0.3,0.1h8.2l-0.5-0.8c-2.4-4.2-6.3-7.4-10.9-9l-1.2-0.4L37.9,13.7z M31.6,12.2c-2.1,3-3.7,6.3-4.8,9.8l-0.2,0.7h10.7L37.2,22
	c-1.1-3.5-2.7-6.8-4.8-9.8L32,11.6L31.6,12.2z M25.5,13c-4.6,1.6-8.5,4.8-10.9,9l-0.4,0.8h8.5l0.1-0.3c0.8-3,1.9-5.9,3.4-8.7
	l0.6-1.1L25.5,13z"/>
</svg>
