<svg id="layer_1" data-name="layer 1" xmlns="http://www.w3.org/2000/svg" viewBox="0 0 64 64"><defs><style>.cls-1{fill:#7e808c;}</style></defs><title>question</title><path class="cls-1" d="M42.91,11.29A19.11,19.11,0,0,0,31.45,8a16.06,16.06,0,0,0-8.85,2.31q-5.7,3.63-6.07,12.31h8.82a9,9,0,0,1,1.48-4.87q1.47-2.36,5-2.35c2.4,0,4.05.64,5,1.9a7.16,7.16,0,0,1,1.35,4.22,6.42,6.42,0,0,1-1.48,3.69A7.91,7.91,0,0,1,34.88,27S30.1,30.08,28,32.54c-1.21,1.43-1.32,3.57-1.43,6.63,0,.22.08.68.84.68h6.86a.76.76,0,0,0,.83-.73,8.32,8.32,0,0,1,.37-2.34,7.21,7.21,0,0,1,2.61-3.19l2.43-1.68a26.34,26.34,0,0,0,4.71-4.21A11.11,11.11,0,0,0,47.47,21C47.47,16.73,46,13.49,42.91,11.29ZM31.31,45.13A5.44,5.44,0,1,0,31,56a5.24,5.24,0,0,0,5.71-5.24A5.3,5.3,0,0,0,31.31,45.13Z"/></svg>