<svg id="layer_1" data-name="layer 1" xmlns="http://www.w3.org/2000/svg" viewBox="0 0 64 64"><defs><style>.cls-1{fill:#474a5e;}</style></defs><title>question_circle</title><path class="cls-1" d="M32,8A24,24,0,1,0,56,32,24,24,0,0,0,32,8Zm-.17,40A3.63,3.63,0,1,1,32,40.75a3.54,3.54,0,0,1,3.6,3.76A3.49,3.49,0,0,1,31.83,48Zm9.49-18.86a17.74,17.74,0,0,1-3.15,2.8l-1.61,1.12a4.72,4.72,0,0,0-1.74,2.13,5.42,5.42,0,0,0-.26,1.55.49.49,0,0,1-.55.49H29.44c-.51,0-.56-.3-.56-.45.07-2,.15-3.47,1-4.42a26.89,26.89,0,0,1,4.58-3.69,5,5,0,0,0,1.18-1.2,4.28,4.28,0,0,0,1-2.45,4.78,4.78,0,0,0-.9-2.82q-.9-1.26-3.3-1.26a3.64,3.64,0,0,0-3.34,1.56,6,6,0,0,0-1,3.25H22.19q.24-5.79,4-8.21A10.63,10.63,0,0,1,32.13,16a12.74,12.74,0,0,1,7.64,2.19,7.5,7.5,0,0,1,3,6.5A7.52,7.52,0,0,1,41.32,29.14Z"/></svg>