<svg id="layer_1" data-name="layer 1" xmlns="http://www.w3.org/2000/svg" viewBox="0 0 64 64"><defs><style>.cls-1{fill:#474a5e;}</style></defs><title>timeline</title><path class="cls-1" d="M61.33,21.33A5.35,5.35,0,0,1,56,26.67a4.66,4.66,0,0,1-1.36-.19L45.15,36a4.75,4.75,0,0,1,.18,1.38,5.33,5.33,0,1,1-10.66,0A4.75,4.75,0,0,1,34.85,36l-6.8-6.8a4.75,4.75,0,0,1-1.38.18,4.86,4.86,0,0,1-1.39-.18L13.15,41.31a4.61,4.61,0,0,1,.18,1.36A5.33,5.33,0,1,1,8,37.33a4.66,4.66,0,0,1,1.36.19L21.52,25.39A4.86,4.86,0,0,1,21.33,24,5.34,5.34,0,0,1,32,24a4.54,4.54,0,0,1-.19,1.39l6.8,6.8a5.18,5.18,0,0,1,2.78,0l9.46-9.5a4.61,4.61,0,0,1-.18-1.36,5.33,5.33,0,0,1,10.66,0Z"/></svg>