<svg id="レイヤー_2" data-name="レイヤー 2" xmlns="http://www.w3.org/2000/svg" viewBox="0 0 800 800"><defs><style>.cls-1{fill:#b9b9b9;}</style></defs><title>unlocked</title><path class="cls-1" d="M566.39,351.79V274c0-92.05-74.8-166.65-166.67-166.65-92.05,0-166.67,74.6-166.67,171.67l66.67,0c0-60.39,44.78-105,100-105a100.1,100.1,0,0,1,100,100v77.76L233,352a66.49,66.49,0,0,0-66.62,66.65V640.46a66.85,66.85,0,0,0,66.87,66.87H566.19a66.72,66.72,0,0,0,66.87-66.87V418.65A66.83,66.83,0,0,0,566.39,351.79ZM410.83,527.68v57.65a11.11,11.11,0,0,1-22.22,0V527.68a33.34,33.34,0,1,1,22.22,0Z"/></svg>