<svg id="layer_1" data-name="layer 1" xmlns="http://www.w3.org/2000/svg" viewBox="0 0 64 64"><defs><style>.cls-1{fill:#7e808c;}</style></defs><title>warning</title><path class="cls-1" d="M32,12.35,52.11,52.44H11.89L32,12.35ZM32,8a3.47,3.47,0,0,0-2.85,2.09L8.66,50.93c-1.57,2.79-.24,5.07,3,5.07H52.37c3.21,0,4.54-2.28,3-5.07h0L34.85,10.09A3.47,3.47,0,0,0,32,8Z"/><path class="cls-1" d="M35,47a3,3,0,1,1-3-3A3,3,0,0,1,35,47Z"/><path class="cls-1" d="M32,41a3,3,0,0,1-3-3V29a3,3,0,0,1,6,0v9A3,3,0,0,1,32,41Z"/></svg>